<svg xmlns="http://www.w3.org/2000/svg" xmlns:xlink="http://www.w3.org/1999/xlink" width="500" zoomAndPan="magnify" viewBox="0 0 375 374.999991" height="500" preserveAspectRatio="xMidYMid meet" version="1.0"><defs><clipPath id="id1"><path d="M 192 104.0625 L 323.523438 104.0625 L 323.523438 243 L 192 243 Z M 192 104.0625 " clip-rule="nonzero"/></clipPath><clipPath id="id2"><path d="M 51.273438 104.0625 L 183 104.0625 L 183 243 L 51.273438 243 Z M 51.273438 104.0625 " clip-rule="nonzero"/></clipPath><clipPath id="id3"><path d="M 117 123 L 257 123 L 257 271.3125 L 117 271.3125 Z M 117 123 " clip-rule="nonzero"/></clipPath></defs><rect x="-37.5" width="450" fill="#ffffff" y="-37.499999" height="449.999989" fill-opacity="1"/><rect x="-37.5" width="450" fill="#ffffff" y="-37.499999" height="449.999989" fill-opacity="1"/><rect x="-37.5" width="450" fill="#ffffff" y="-37.499999" height="449.999989" fill-opacity="1"/><rect x="-37.5" width="450" fill="#800080" y="-37.499999" height="449.999989" fill-opacity="1"/><g clip-path="url(#id1)"><path fill="#cb6ce6" d="M 323.410156 225.214844 C 322.960938 213.023438 316.207031 201.949219 305.113281 193.78125 C 299.988281 190.011719 293.941406 186.863281 287.15625 184.507812 C 297.082031 176.167969 303.398438 163.652344 303.398438 149.648438 C 303.398438 124.542969 283.105469 104.1875 258.074219 104.1875 C 233.039062 104.1875 212.75 124.542969 212.75 149.648438 C 212.75 163.652344 219.066406 176.167969 228.992188 184.507812 C 222.207031 186.863281 216.164062 190.011719 211.042969 193.78125 C 199.949219 201.949219 193.203125 213.023438 192.738281 225.214844 C 192.574219 229.496094 193.042969 233.097656 194.035156 236.167969 C 210.992188 240.371094 233.445312 242.929688 258.074219 242.929688 C 282.765625 242.929688 305.269531 240.359375 322.238281 236.140625 C 323.148438 233.074219 323.570312 229.476562 323.410156 225.214844 " fill-opacity="1" fill-rule="nonzero"/></g><g clip-path="url(#id2)"><path fill="#cb6ce6" d="M 182.140625 225.214844 C 181.6875 213.023438 174.9375 201.949219 163.839844 193.78125 C 158.714844 190.011719 152.667969 186.863281 145.886719 184.507812 C 155.808594 176.167969 162.125 163.652344 162.125 149.648438 C 162.125 124.542969 141.835938 104.1875 116.804688 104.1875 C 91.769531 104.1875 71.476562 124.542969 71.476562 149.648438 C 71.476562 163.652344 77.796875 176.167969 87.722656 184.507812 C 80.933594 186.863281 74.894531 190.011719 69.769531 193.78125 C 58.679688 201.949219 51.929688 213.023438 51.464844 225.214844 C 51.300781 229.496094 51.773438 233.097656 52.765625 236.167969 C 69.71875 240.371094 92.171875 242.929688 116.804688 242.929688 C 141.496094 242.929688 163.996094 240.359375 180.96875 236.140625 C 181.875 233.074219 182.300781 229.476562 182.140625 225.214844 " fill-opacity="1" fill-rule="nonzero"/></g><g clip-path="url(#id3)"><path fill="#ffffff" d="M 256.898438 252.4375 C 256.417969 239.476562 249.238281 227.703125 237.441406 219.023438 C 231.996094 215.015625 225.566406 211.664062 218.355469 209.160156 C 228.90625 200.300781 235.617188 186.996094 235.617188 172.105469 C 235.617188 145.417969 214.046875 123.78125 187.441406 123.78125 C 160.828125 123.78125 139.257812 145.417969 139.257812 172.105469 C 139.257812 186.996094 145.972656 200.300781 156.523438 209.164062 C 149.3125 211.664062 142.886719 215.015625 137.445312 219.023438 C 125.652344 227.703125 118.476562 239.476562 117.980469 252.4375 C 117.808594 256.988281 118.308594 260.820312 119.363281 264.078125 C 137.390625 268.550781 161.253906 271.269531 187.441406 271.269531 C 213.6875 271.269531 237.609375 268.535156 255.644531 264.050781 C 256.613281 260.785156 257.0625 256.964844 256.898438 252.4375 " fill-opacity="1" fill-rule="nonzero"/></g></svg>